<?xml version="1.0" standalone="no"?>
<!DOCTYPE svg PUBLIC "-//W3C//DTD SVG 20010904//EN"
 "http://www.w3.org/TR/2001/REC-SVG-20010904/DTD/svg10.dtd">
<svg version="1.0" xmlns="http://www.w3.org/2000/svg"
 width="255.000000pt" height="274.000000pt" viewBox="0 0 255.000000 274.000000"
 preserveAspectRatio="xMidYMid meet">

<g transform="translate(0.000000,274.000000) scale(0.100000,-0.100000)"
fill="#000000" stroke="none">
<path d="M1509 2212 c-37 -19 -64 -43 -86 -75 -20 -30 -60 -66 -110 -100 -71
-47 -213 -180 -213 -199 0 -4 23 -8 51 -8 71 0 118 -16 176 -59 70 -53 107
-126 107 -213 1 -41 -4 -72 -11 -79 -11 -10 -13 -6 -13 22 0 18 -9 52 -19 74
l-18 40 -6 -53 c-9 -81 -57 -146 -57 -78 0 13 -14 50 -31 84 -37 75 -111 144
-181 170 l-51 19 44 16 44 15 -45 1 c-129 2 -239 -124 -245 -279 -4 -81 -30
-159 -62 -183 -13 -11 -47 -20 -82 -22 -154 -12 -266 -119 -301 -290 -14 -66
-8 -161 14 -223 14 -38 13 -41 -10 -63 -13 -12 -34 -43 -46 -68 -30 -61 -29
-171 1 -255 12 -33 21 -61 21 -63 0 -1 -10 -3 -22 -3 -31 0 -54 -15 -39 -24
61 -38 1913 -38 1950 0 11 11 -25 24 -66 24 -24 0 -43 5 -43 11 0 6 11 29 24
52 14 23 37 78 52 122 24 69 28 95 28 190 -1 121 -12 165 -64 239 -25 38 -28
49 -20 71 14 36 12 124 -4 160 l-13 30 -7 -46 c-4 -26 -13 -55 -20 -65 -12
-16 -14 -14 -21 23 -3 23 -22 67 -40 98 -36 59 -36 59 20 38 22 -8 55 85 55
155 0 109 -57 204 -152 253 -46 24 -48 24 -48 0 0 -11 14 -28 34 -39 19 -11
47 -40 63 -63 22 -34 28 -55 30 -113 l3 -71 -23 47 c-38 74 -65 106 -111 133
-24 14 -58 25 -76 25 l-32 0 35 39 c39 43 54 78 39 93 -13 13 -106 12 -132 -2
-21 -11 -22 -10 -17 11 3 14 0 32 -9 43 -44 60 19 132 85 97 23 -13 64 -2 57
15 -3 7 2 18 10 25 8 7 13 19 12 28 -3 12 -17 16 -63 17 -33 1 -80 5 -105 9
-36 6 -49 4 -59 -9 -12 -14 -11 -19 2 -34 13 -14 14 -21 5 -30 -9 -9 -16 -8
-30 5 -26 24 -23 69 8 100 23 23 30 25 72 18 26 -4 63 -8 82 -8 46 -2 46 18 2
75 -18 24 -43 59 -55 78 -51 80 -170 103 -268 52z m214 -27 c21 -15 20 -15
-14 -15 -20 0 -51 5 -69 12 -30 10 -32 12 -14 19 25 11 70 3 97 -16z m72 -95
c25 -27 13 -35 -24 -16 -16 9 -42 16 -56 16 -15 0 -24 4 -20 10 11 18 81 11
100 -10z m-234 -546 c50 -25 96 -88 109 -148 6 -31 9 -60 5 -66 -17 -27 -119
6 -163 53 -18 19 -20 28 -11 65 5 26 6 58 0 82 -9 39 -8 40 12 34 12 -4 34
-12 48 -20z m297 -49 c41 -34 62 -84 62 -144 0 -68 -18 -108 -68 -153 -43 -38
-85 -52 -143 -46 l-34 4 42 12 c85 25 151 96 168 180 l7 33 -44 -30 c-23 -17
-59 -31 -78 -33 l-35 -3 -3 60 c-4 72 2 99 28 125 27 27 62 25 98 -5z m-887
-321 c13 -22 45 -62 71 -90 l49 -52 -11 -66 c-12 -74 -2 -155 25 -221 23 -54
96 -163 134 -199 43 -41 43 -91 0 -129 -19 -16 -29 -33 -25 -42 3 -8 1 -15 -4
-15 -6 0 -10 18 -10 40 0 29 5 42 20 50 11 6 20 14 20 18 0 4 -27 35 -60 70
-36 38 -74 92 -97 139 -38 77 -38 78 -39 204 l0 128 -48 51 c-68 73 -99 146
-103 245 l-3 80 28 -86 c16 -48 39 -104 53 -125z m427 136 c13 -27 22 -62 22
-92 0 -53 -14 -72 -24 -30 -3 15 -15 38 -26 52 l-20 25 0 -35 c-1 -58 -14 -65
-34 -19 -10 23 -36 59 -57 80 l-39 39 38 0 c20 1 51 7 67 15 41 18 47 16 73
-35z m-133 -179 c17 -8 63 -29 103 -47 43 -20 94 -54 127 -84 39 -38 59 -50
73 -46 18 6 71 56 109 103 10 12 30 25 45 28 21 5 27 3 33 -15 4 -12 20 -36
35 -54 l29 -33 -15 -49 c-36 -115 -1 -250 91 -352 l45 -50 -16 -38 c-9 -22
-23 -47 -32 -57 -15 -17 -15 -21 1 -49 10 -17 16 -32 14 -34 -2 -2 -81 -1
-176 3 -151 5 -171 8 -166 22 4 9 16 54 27 101 35 147 15 326 -46 411 -17 24
-17 24 -10 -16 l7 -40 -53 59 c-30 32 -93 84 -141 117 -49 32 -96 73 -108 92
-22 36 -27 51 -13 45 4 -2 21 -10 37 -17z m-335 -453 c0 -4 22 -21 50 -39 l49
-32 -24 -42 c-27 -45 -33 -113 -16 -173 l10 -32 -67 0 c-37 0 -104 -3 -149 -7
-81 -6 -83 -5 -83 16 0 14 -11 28 -30 39 -38 22 -38 48 1 88 16 17 40 55 52
85 14 34 45 77 82 115 l60 62 32 -37 c18 -20 32 -39 33 -43z"/>
<path d="M1790 1812 c0 -24 30 -38 42 -20 12 19 4 33 -20 36 -16 3 -22 -2 -22
-16z"/>
<path d="M1877 1823 c-12 -11 -7 -43 6 -43 19 0 36 20 30 36 -5 15 -25 19 -36
7z"/>
</g>
</svg>
